# xmcd CD database file
#
# Track frame offsets:
#	150
#	8199
#	35359
#	56022
#	77761
#	94392
#	108439
#	125923
#	142181
#	163850
#	192210
#
# Disc length: 2784 seconds
#
# Revision: 0
# Processed by: cddbd v1.5.2PL0 Copyright (c) Steve Scherf et al.
# Submitted via: CDex 1.78
#
DISCID=9c0ade0b
DTITLE=Ghalia Benali - Mw Soul
DYEAR=2017
DGENRE=Arabic
TTITLE0=Mwsoul-in
TTITLE1=Antidote
TTITLE2=Bonding
TTITLE3=Upon a time
TTITLE4=Last Embrace
TTITLE5=Here and Beyond
TTITLE6=Two Hearts
TTITLE7=No Anger
TTITLE8=The Fortune Teller
TTITLE9=Crystal tears
TTITLE10=Mwsoul-out
EXTD=YEAR: 2017
EXTT0=
EXTT1=
EXTT2=
EXTT3=
EXTT4=
EXTT5=
EXTT6=
EXTT7=
EXTT8=
EXTT9=
EXTT10=
PLAYORDER=
